<svg id="Layer_1" data-name="Layer 1" xmlns="http://www.w3.org/2000/svg" viewBox="0 0 429.51 159.16"><defs><style>.cls-1{fill:#56698f;}.cls-2,.cls-4,.cls-5,.cls-6,.cls-7{fill:#fff;}.cls-10,.cls-2,.cls-4,.cls-5,.cls-6,.cls-7,.cls-8,.cls-9{stroke:#56698f;stroke-miterlimit:10;}.cls-2{stroke-width:4px;}.cls-3{fill:#001d43;}.cls-10,.cls-4{stroke-width:1.9px;}.cls-5{stroke-width:2.52px;}.cls-6{stroke-width:1.28px;}.cls-7,.cls-8{stroke-width:1px;}.cls-10,.cls-8,.cls-9{fill:none;}</style></defs><title>SonarK_Logo_FINAL (white background)</title><path class="cls-1" d="M407.11,104.07c0,1.28-1.23,2.7-.41,3.67.69.82,2.24.93,3.42,1.34l25.36,8.84c.75.26,1.3.52,2-.39a6,6,0,0,1,8.85-1.08c2.74,2.34,2.84,6.24.24,9l-10.21-4.26c.2-1.06-.21-1.58-1.27-1.92-3.43-1.1-6.82-2.36-10.24-3.5-1.16-.39-2.24-1.12-3.55-.92l-13-5.36c-2.49-1-2.48-1-3.37,1.56a.63.63,0,0,0,0,.17,5.45,5.45,0,0,0-1,1.86l-2.48,3.43a33.7,33.7,0,0,1-5.11,4.23c-1,.61-.25,1.16,0,1.67,4.08,7.29,8.19,14.56,12.25,21.86.75,1.35,1.34,2.46,3.29,2.53s3.24,2.44,2.62,4.52a3.61,3.61,0,0,1-4.67,2.26,3.46,3.46,0,0,1-1.92-4.9,2.44,2.44,0,0,0-.13-2.87q-6.4-11.27-12.7-22.58c-.54-1-.91-1.25-2-.72a51.13,51.13,0,0,1-5.11,1.82l-1.47.15a24.12,24.12,0,0,1-11.08-1.1c-.85-.3-1.19,0-1.53.73Q366,141.43,358.1,158.68c-.51,1.11.17,1.36.76,1.87a11,11,0,0,1,3.74,11.65,10.38,10.38,0,0,1-8.36,8.08c-4.51.91-8.65-.2-11.53-4.11a11.07,11.07,0,0,1-1-12.21l.46-.91c3.08-4,7.06-5.7,12.07-4.73.61.12.94,0,1.18-.55,1.65-3.91,3.7-7.64,5.14-11.64q5.43-11.69,10.85-23.38c.3-.66.19-1.08-.55-1.26L367.41,119a25.84,25.84,0,0,1-7-9.93l-.9-2.65c-.33-3.3-.33-3.32-3.52-3.07-8.56.65-17.11,1.35-25.67,2-1,.07-1.14.56-1.37,1.32a5.35,5.35,0,0,1-6,3.86,5.44,5.44,0,0,1-.55-10.66,5.25,5.25,0,0,1,6.31,3,1.41,1.41,0,0,0,1.77,1c2.43-.24,4.87-.41,7.31-.6,6.46-.49,12.92-1,19.38-1.44,1.29-.09,1.81-.47,1.8-1.91a22.43,22.43,0,0,1,1.53-8,2.61,2.61,0,0,0,.46-1.46l.49-.84.6-1c.52-.85,1.48-1.71,1.46-2.54,0-1-1.59-1.15-2.23-2-.06-.18-.1-.38-.38-.32l0,0c-.06-.15-.09-.34-.2-.43L341.07,66.73c-3.65-3.14-7.3-6.26-10.93-9.42a1,1,0,0,0-1.48-.11,12.78,12.78,0,0,1-7.92,2c-.44-.11-.88-.23-1.32-.32a12.1,12.1,0,0,1-9.2-14.21c1.18-5.23,4.45-8.57,9.71-9.53A11.38,11.38,0,0,1,332,40c3,4.33,3.07,8.94.32,13.45-.66,1.08-.55,1.57.36,2.32,3.1,2.55,6.14,5.17,9.2,7.77l22.74,19.34c.51.43.91,1,1.67.24a27.1,27.1,0,0,1,9.33-5.78c.48-.06,1,0,1.39-.4a28.54,28.54,0,0,1,11.48-.09l1.36.37c1.16.61,1.81.39,2.42-.93q5.94-12.8,12.09-25.51c.51-1.06.37-1.57-.56-2.33a14.33,14.33,0,0,1-.2-21.71c1.83-1.59,4.07-2.33,6.14-3.43h5.81c2.11.77,4.28,1.39,6.08,2.84a14.26,14.26,0,0,1,5.63,11.18A12,12,0,0,0,421.68,49a14.27,14.27,0,0,1-11.43,2.57c-1.2-.25-1.57.1-2,1-3.68,7.85-7.41,15.68-11.11,23.52-1.64,3.48-1.62,3.49,1.56,5.75l2.14,1.93a27.55,27.55,0,0,1,4.76,7.62c.43,1.18,1.13.66,1.75.46q10-3.24,20.08-6.53c3.67-1.2,7.33-2.42,11-3.57a1.68,1.68,0,0,0,1.37-1.6,4,4,0,0,1,3.84-3.67A4.25,4.25,0,0,1,448,79.35a4.31,4.31,0,0,1-1.83,5.05,4.14,4.14,0,0,1-5.28-.77,1.67,1.67,0,0,0-2.06-.47q-15.45,5.07-30.93,10.08c-1.07.34-1.59.64-1.19,1.94a23.07,23.07,0,0,1,.64,7.44A2.43,2.43,0,0,0,407.11,104.07Z" transform="translate(-36.35 -22.37)"/><path class="cls-1" d="M302.17,121c.5-.29.5-.86.71-1.3a8.22,8.22,0,0,1,14-1.46,1.76,1.76,0,0,0,2.36.75q20.14-6.35,40.31-12.61l.9,2.65-30.37,9.55q-5.12,1.61-10.25,3.16c-.84.25-1.28.55-1.3,1.6a8,8,0,0,1-6.43,7.94,8.21,8.21,0,0,1-9.35-4.84c-.16-.34-.13-.81-.58-1Z" transform="translate(-36.35 -22.37)"/><path class="cls-1" d="M407.11,104.07a2.43,2.43,0,0,1,.24-1.45c12.82,1.41,25.65,2.8,38.46,4.28,1.22.14,1.25-.6,1.6-1.25a6.14,6.14,0,0,1,6.83-3,6.26,6.26,0,0,1,4.64,5.68,6.19,6.19,0,0,1-4,6,6,6,0,0,1-8.06-4.57c-.2-1.06-.55-1.33-1.56-1.44Q426.17,106.22,407.11,104.07Z" transform="translate(-36.35 -22.37)"/><path class="cls-1" d="M386.51,124.52l1.47-.15,5.37,31c.45,2.63,1,5.25,1.33,7.89.14,1,.48,1.29,1.45,1.47a4.66,4.66,0,0,1,3.72,4.83,4.91,4.91,0,0,1-4,4.63,4.84,4.84,0,0,1-5.25-2.9,4.66,4.66,0,0,1,1.88-6,1.6,1.6,0,0,0,.81-1.93Q389.85,144,386.51,124.52Z" transform="translate(-36.35 -22.37)"/><path class="cls-1" d="M375.64,77.35q-5.13-17.58-10.25-35.17c-.28-1-.55-1.49-1.76-1.53a5.64,5.64,0,0,1-5.47-5.12,5.9,5.9,0,0,1,4-6.37,6,6,0,0,1,7.09,3,5.74,5.74,0,0,1-1.86,7.42c-1,.69-.9,1.31-.63,2.22Q371.93,59.36,377,77C376.64,77.35,376.12,77.29,375.64,77.35Z" transform="translate(-36.35 -22.37)"/><path class="cls-1" d="M361.28,84.09c-.25,0-.47,0-.38-.32C361.18,83.71,361.22,83.91,361.28,84.09Z" transform="translate(-36.35 -22.37)"/><path class="cls-1" d="M317.67,72l.1.37-.36-.12Z" transform="translate(-36.35 -22.37)"/><path class="cls-1" d="M442.42,127.08a5.18,5.18,0,0,1-4.28-1.57C439.74,125.58,441,126.5,442.42,127.08Z" transform="translate(-36.35 -22.37)"/><circle class="cls-2" cx="345.94" cy="78.48" r="43.73"/><path class="cls-3" d="M358,73.69h14.9V95.5l18.51-21.81H409.1L388.76,96.8l21,30.64H391.9l-13.51-20-5.45,6.07v13.9H358Z" transform="translate(-36.35 -22.37)"/><circle class="cls-4" cx="285.32" cy="23.94" r="11.72"/><circle class="cls-4" cx="376.15" cy="15.9" r="14.95"/><circle class="cls-4" cx="315.44" cy="146.49" r="11.72"/><circle class="cls-5" cx="412.72" cy="126.15" r="15.53"/><circle class="cls-6" cx="274.18" cy="100.95" r="7.86"/><circle class="cls-1" cx="270.28" cy="46.69" r="4.36"/><path class="cls-3" d="M57.65,127.71a29.62,29.62,0,0,1-11.45-2.12,35.19,35.19,0,0,1-9.86-6.35l2.57-2.95a37.36,37.36,0,0,0,4.34,3.51,24.5,24.5,0,0,0,4.42,2.42,24.76,24.76,0,0,0,4.76,1.44,28.11,28.11,0,0,0,5.44.49,17.84,17.84,0,0,0,5.44-.79,12.91,12.91,0,0,0,4.23-2.19,10.15,10.15,0,0,0,2.72-3.32,9.11,9.11,0,0,0,1-4.19v-.15a10.43,10.43,0,0,0-.64-3.78,7.28,7.28,0,0,0-2.34-3,17.06,17.06,0,0,0-4.57-2.46,47.44,47.44,0,0,0-7.4-2,51.22,51.22,0,0,1-8.16-2.3,20.17,20.17,0,0,1-5.55-3.1,10.64,10.64,0,0,1-3.14-4.12,13.76,13.76,0,0,1-1-5.36v-.15a11.91,11.91,0,0,1,1.28-5.48,13.89,13.89,0,0,1,3.55-4.42,16.74,16.74,0,0,1,5.36-2.95,20.93,20.93,0,0,1,6.8-1.06A28.06,28.06,0,0,1,65.4,74.9a29.84,29.84,0,0,1,8.2,4.83l-2.49,3.1a24.31,24.31,0,0,0-7.59-4.61,24.25,24.25,0,0,0-8.2-1.36,16.77,16.77,0,0,0-5.33.79,13.08,13.08,0,0,0-4.08,2.15A9.46,9.46,0,0,0,43.3,83a8.5,8.5,0,0,0-.91,3.85V87A10.71,10.71,0,0,0,43,90.8a7.46,7.46,0,0,0,2.34,3.1,16.68,16.68,0,0,0,4.72,2.53,54.08,54.08,0,0,0,7.71,2.12q9.22,1.89,13.3,5.33a11.48,11.48,0,0,1,4.08,9.25v.15a13.06,13.06,0,0,1-1.32,5.86,13.63,13.63,0,0,1-3.63,4.57,17,17,0,0,1-5.51,2.95A22.5,22.5,0,0,1,57.65,127.71Z" transform="translate(-36.35 -22.37)"/><path class="cls-1" d="M112.27,127.86A25.72,25.72,0,0,1,93,119.66,26.56,26.56,0,0,1,87.65,111a28.57,28.57,0,0,1-1.89-10.35v-.15a28.38,28.38,0,0,1,1.93-10.39,27.49,27.49,0,0,1,5.4-8.73,25.65,25.65,0,0,1,8.39-6,27.85,27.85,0,0,1,21.83,0,25.94,25.94,0,0,1,8.39,6A26.62,26.62,0,0,1,137.05,90a28.61,28.61,0,0,1,1.89,10.35.1.1,0,0,1,0,.15A28.38,28.38,0,0,1,137,110.9a27.5,27.5,0,0,1-5.4,8.73,25.55,25.55,0,0,1-8.42,6A26.29,26.29,0,0,1,112.27,127.86Zm.15-3.55a21.66,21.66,0,0,0,16.13-6.91,23.18,23.18,0,0,0,4.65-7.52,25.39,25.39,0,0,0,1.66-9.22v-.15a25.17,25.17,0,0,0-1.7-9.25,23.61,23.61,0,0,0-4.68-7.55,22.15,22.15,0,0,0-7.14-5.1,22.06,22.06,0,0,0-25.2,5,23.14,23.14,0,0,0-4.65,7.52,25.37,25.37,0,0,0-1.66,9.22v.15a25.15,25.15,0,0,0,1.7,9.25,23.56,23.56,0,0,0,4.68,7.55,22.09,22.09,0,0,0,7.14,5.1A21.63,21.63,0,0,0,112.42,124.31Z" transform="translate(-36.35 -22.37)"/><path class="cls-3" d="M152.31,74.07H156l36.49,46v-46h3.78V127h-2.95L156.09,80v47h-3.78Z" transform="translate(-36.35 -22.37)"/><path class="cls-3" d="M232.09,73.69h3.78L260.5,127h-4.31l-6.72-14.81h-31.2L211.54,127h-4.08Zm15.71,34.9L233.91,78l-14,30.6Z" transform="translate(-36.35 -22.37)"/><path class="cls-3" d="M271.68,74.07h22.21a25,25,0,0,1,8.69,1.4,16.94,16.94,0,0,1,6.2,3.82,13.65,13.65,0,0,1,2.95,4.42,13.89,13.89,0,0,1,1.06,5.4v.15a14.33,14.33,0,0,1-1.17,5.93,13.46,13.46,0,0,1-3.25,4.5,16.7,16.7,0,0,1-4.91,3.06,24.81,24.81,0,0,1-6.16,1.63L314.74,127h-5L292.91,105h-17.3V127h-3.93Zm21.76,27.42a21.7,21.7,0,0,0,6.16-.83,14.85,14.85,0,0,0,4.87-2.39,11.31,11.31,0,0,0,3.21-3.79,10.87,10.87,0,0,0,1.17-5.12v-.15a10.2,10.2,0,0,0-4-8.49q-4-3.11-11.22-3.11H275.61v23.87Z" transform="translate(-36.35 -22.37)"/><circle class="cls-7" cx="406.12" cy="99.01" r="6.13"/><circle class="cls-7" cx="355.12" cy="24.49" r="6.13"/><line class="cls-8" x1="354.12" y1="30.62" x2="352.7" y2="35.66"/><line class="cls-9" x1="274.64" y1="48.29" x2="305.68" y2="61.39"/><line class="cls-10" x1="399.25" y1="118.41" x2="380.59" y2="105.14"/></svg>